<svg width="12" height="14" viewBox="0 0 12 14" fill="none" xmlns="http://www.w3.org/2000/svg">
<path d="M0 12.5481V1.29808C0 0.58116 0.575625 0 1.28571 0H10.7143C11.4244 0 12 0.58116 12 1.29808V12.5481C12 13.265 11.4244 13.8462 10.7143 13.8462H1.28571C0.575625 13.8462 0 13.265 0 12.5481ZM10.2857 4.86779V2.05529C10.2857 1.87607 10.1418 1.73077 9.96429 1.73077H2.03571C1.85821 1.73077 1.71429 1.87607 1.71429 2.05529V4.86779C1.71429 5.047 1.85821 5.19231 2.03571 5.19231H9.96429C10.1418 5.19231 10.2857 5.047 10.2857 4.86779ZM3.42857 8.32933V7.2476C3.42857 7.06838 3.28465 6.92308 3.10714 6.92308H2.03571C1.85821 6.92308 1.71429 7.06838 1.71429 7.2476V8.32933C1.71429 8.50854 1.85821 8.65385 2.03571 8.65385H3.10714C3.28465 8.65385 3.42857 8.50854 3.42857 8.32933ZM10.2857 11.7909V7.2476C10.2857 7.06838 10.1418 6.92308 9.96429 6.92308H8.89286C8.71535 6.92308 8.57143 7.06838 8.57143 7.2476V11.7909C8.57143 11.9701 8.71535 12.1154 8.89286 12.1154H9.96429C10.1418 12.1154 10.2857 11.9701 10.2857 11.7909ZM3.42857 11.7909V10.7091C3.42857 10.5299 3.28465 10.3846 3.10714 10.3846H2.03571C1.85821 10.3846 1.71429 10.5299 1.71429 10.7091V11.7909C1.71429 11.9701 1.85821 12.1154 2.03571 12.1154H3.10714C3.28465 12.1154 3.42857 11.9701 3.42857 11.7909ZM6.85714 8.32933V7.2476C6.85714 7.06838 6.71322 6.92308 6.53571 6.92308H5.46429C5.28678 6.92308 5.14286 7.06838 5.14286 7.2476V8.32933C5.14286 8.50854 5.28678 8.65385 5.46429 8.65385H6.53571C6.71322 8.65385 6.85714 8.50854 6.85714 8.32933ZM6.85714 11.7909V10.7091C6.85714 10.5299 6.71322 10.3846 6.53571 10.3846H5.46429C5.28678 10.3846 5.14286 10.5299 5.14286 10.7091V11.7909C5.14286 11.9701 5.28678 12.1154 5.46429 12.1154H6.53571C6.71322 12.1154 6.85714 11.9701 6.85714 11.7909Z" fill="#898989"/>
</svg>
