<svg width="58" height="58" viewBox="0 0 58 58" fill="none" xmlns="http://www.w3.org/2000/svg">
<path d="M21 14H16V9C16 8.447 15.552 8 15 8C14.448 8 14 8.447 14 9V14H9C8.448 14 8 14.447 8 15C8 15.553 8.448 16 9 16H14V21C14 21.553 14.448 22 15 22C15.552 22 16 21.553 16 21V16H21C21.552 16 22 15.553 22 15C22 14.447 21.552 14 21 14Z" fill="#898989"/>
<path d="M49 14H37C36.448 14 36 14.447 36 15C36 15.553 36.448 16 37 16H49C49.552 16 50 15.553 50 15C50 14.447 49.552 14 49 14Z" fill="#898989"/>
<path d="M30 0H28H0V28V30V58H28H30H58V30V28V0H30ZM2 2H28V28H2V2ZM2 56V30H28V56H2ZM56 56H30V30H56V56ZM30 28V2H56V28H30Z" fill="#898989"/>
<path d="M37 47H49C49.552 47 50 46.553 50 46C50 45.447 49.552 45 49 45H37C36.448 45 36 45.447 36 46C36 46.553 36.448 47 37 47Z" fill="#898989"/>
<path d="M37 41H49C49.552 41 50 40.553 50 40C50 39.447 49.552 39 49 39H37C36.448 39 36 39.447 36 40C36 40.553 36.448 41 37 41Z" fill="#898989"/>
<path d="M20.7073 37.2932C20.3163 36.9022 19.6842 36.9022 19.2932 37.2932L15.0002 41.5862L10.7072 37.2932C10.3162 36.9022 9.68425 36.9022 9.29325 37.2932C8.90225 37.6842 8.90225 38.3163 9.29325 38.7073L13.5863 43.0003L9.29325 47.2933C8.90225 47.6843 8.90225 48.3163 9.29325 48.7073C9.48825 48.9023 9.74425 49.0003 10.0002 49.0003C10.2562 49.0003 10.5122 48.9023 10.7072 48.7073L15.0002 44.4143L19.2932 48.7073C19.4882 48.9023 19.7442 49.0003 20.0002 49.0003C20.2562 49.0003 20.5123 48.9023 20.7073 48.7073C21.0983 48.3163 21.0983 47.6843 20.7073 47.2933L16.4142 43.0003L20.7073 38.7073C21.0983 38.3163 21.0983 37.6842 20.7073 37.2932Z" fill="#898989"/>
</svg>
