<svg width="16" height="13" viewBox="0 0 16 13" fill="none" xmlns="http://www.w3.org/2000/svg">
<g clip-path="url(#clip0)">
<path d="M2.6 2.40078H1.4C1.0675 2.40078 0.8 2.66828 0.8 3.00078V5.60078H0.2C0.09 5.60078 0 5.69078 0 5.80078V7.00078C0 7.11078 0.09 7.20078 0.2 7.20078H0.8V9.80078C0.8 10.1333 1.0675 10.4008 1.4 10.4008H2.6C2.9325 10.4008 3.2 10.1333 3.2 9.80078V3.00078C3.2 2.66828 2.9325 2.40078 2.6 2.40078ZM15.8 5.60078H15.2V3.00078C15.2 2.66828 14.9325 2.40078 14.6 2.40078H13.4C13.0675 2.40078 12.8 2.66828 12.8 3.00078V9.80078C12.8 10.1333 13.0675 10.4008 13.4 10.4008H14.6C14.9325 10.4008 15.2 10.1333 15.2 9.80078V7.20078H15.8C15.91 7.20078 16 7.11078 16 7.00078V5.80078C16 5.69078 15.91 5.60078 15.8 5.60078ZM11.4 0.800781H10.2C9.8675 0.800781 9.6 1.06828 9.6 1.40078V5.60078H6.4V1.40078C6.4 1.06828 6.1325 0.800781 5.8 0.800781H4.6C4.2675 0.800781 4 1.06828 4 1.40078V11.4008C4 11.7333 4.2675 12.0008 4.6 12.0008H5.8C6.1325 12.0008 6.4 11.7333 6.4 11.4008V7.20078H9.6V11.4008C9.6 11.7333 9.8675 12.0008 10.2 12.0008H11.4C11.7325 12.0008 12 11.7333 12 11.4008V1.40078C12 1.06828 11.7325 0.800781 11.4 0.800781Z" fill="#898989"/>
</g>
<defs>
<clipPath id="clip0">
<rect width="16" height="12.8" fill="white"/>
</clipPath>
</defs>
</svg>
