<svg width="14" height="13" viewBox="0 0 14 13" fill="none" xmlns="http://www.w3.org/2000/svg">
<path d="M10.8889 6.01123V11.5341C10.8889 12.1931 10.3666 12.7273 9.72222 12.7273H1.16667C0.522326 12.7273 0 12.1931 0 11.5341V2.78409C0 2.12511 0.522326 1.59091 1.16667 1.59091H9.42997C9.68982 1.59091 9.81995 1.91222 9.6362 2.10012L9.05287 2.69672C8.99817 2.75265 8.92399 2.78408 8.84664 2.78409H1.3125C1.27382 2.78409 1.23673 2.7998 1.20938 2.82778C1.18203 2.85575 1.16667 2.89368 1.16667 2.93324V11.3849C1.16667 11.4245 1.18203 11.4624 1.20938 11.4904C1.23673 11.5184 1.27382 11.5341 1.3125 11.5341H9.57639C9.61507 11.5341 9.65216 11.5184 9.67951 11.4904C9.70686 11.4624 9.72222 11.4245 9.72222 11.3849V6.60782C9.72222 6.52869 9.75294 6.45283 9.80766 6.3969L10.391 5.80031C10.5747 5.61238 10.8889 5.74547 10.8889 6.01123V6.01123ZM13.7083 0H10.4031C10.1441 0 10.0133 0.321413 10.1969 0.509215L11.3681 1.70739L4.7521 8.47378C4.6382 8.59026 4.6382 8.77913 4.7521 8.89564L5.30206 9.4581C5.41598 9.57459 5.60066 9.57459 5.71455 9.4581L12.3305 2.69174L13.5021 3.8897C13.6847 4.07646 14 3.94526 14 3.67878V0.298295C14 0.133562 13.8694 0 13.7083 0Z" fill="#FF3800"/>
<path d="M10.8889 6.01123V11.5341C10.8889 12.1931 10.3666 12.7273 9.72222 12.7273H1.16667C0.522326 12.7273 0 12.1931 0 11.5341V2.78409C0 2.12511 0.522326 1.59091 1.16667 1.59091H9.42997C9.68982 1.59091 9.81995 1.91222 9.6362 2.10012L9.05287 2.69672C8.99817 2.75265 8.92399 2.78408 8.84664 2.78409H1.3125C1.27382 2.78409 1.23673 2.7998 1.20938 2.82778C1.18203 2.85575 1.16667 2.89368 1.16667 2.93324V11.3849C1.16667 11.4245 1.18203 11.4624 1.20938 11.4904C1.23673 11.5184 1.27382 11.5341 1.3125 11.5341H9.57639C9.61507 11.5341 9.65216 11.5184 9.67951 11.4904C9.70686 11.4624 9.72222 11.4245 9.72222 11.3849V6.60782C9.72222 6.52869 9.75294 6.45283 9.80766 6.3969L10.391 5.80031C10.5747 5.61238 10.8889 5.74547 10.8889 6.01123V6.01123ZM13.7083 0H10.4031C10.1441 0 10.0133 0.321413 10.1969 0.509215L11.3681 1.70739L4.7521 8.47378C4.6382 8.59026 4.6382 8.77913 4.7521 8.89564L5.30206 9.4581C5.41598 9.57459 5.60066 9.57459 5.71455 9.4581L12.3305 2.69174L13.5021 3.8897C13.6847 4.07646 14 3.94526 14 3.67878V0.298295C14 0.133562 13.8694 0 13.7083 0Z" fill="url(#paint0_linear)"/>
<defs>
<linearGradient id="paint0_linear" x1="-6.18129" y1="-5.07371" x2="16.646" y2="-0.511179" gradientUnits="userSpaceOnUse">
<stop stop-color="#FE8C00"/>
<stop offset="1" stop-color="white" stop-opacity="0"/>
</linearGradient>
</defs>
</svg>
