<svg width="48" height="59" viewBox="0 0 48 59" fill="none" xmlns="http://www.w3.org/2000/svg">
<path d="M10.6667 35.5547L6.34913 40.1261L1.77784 35.5547L0 37.3325L4.57142 41.9038L0 46.2213L1.77784 47.9992L6.34913 43.6817L10.6667 47.9992L12.4444 46.2213L8.12697 41.9038L12.4444 37.3325L10.6667 35.5547Z" fill="#898989"/>
<path d="M29.2064 45.715V36.3182L8.12696 15.2389H16.5078V12.6992H3.80957V25.3976H6.34925V17.0167L26.6667 37.3342V45.715C23.8731 46.223 21.5873 48.7627 21.5873 51.8103C21.5873 55.3657 24.3809 58.1594 27.9365 58.1594C31.492 58.1594 34.2856 55.3657 34.2856 51.8103C34.2857 49.0166 31.9999 46.4769 29.2064 45.715ZM27.9365 55.8738C25.9047 55.8738 24.1269 54.0959 24.1269 52.0642C24.1269 50.0324 25.6507 48.2546 27.9365 48.2546C30.2222 48.2546 31.746 50.0324 31.746 52.0642C31.746 54.0959 29.9682 55.8738 27.9365 55.8738Z" fill="#898989"/>
<path d="M48.0002 19.5571L46.2223 17.7793L41.9048 22.3507L37.3335 17.7793L35.5557 19.5571L40.1271 24.1286L35.5557 28.4459L37.3335 30.2238L41.9048 25.9063L46.2223 30.2238L48.0002 28.4459L43.6826 24.1286L48.0002 19.5571Z" fill="#898989"/>
<path d="M33.5241 0L29.2067 4.57142L24.6353 0L22.8574 1.77784L27.4288 6.34913L22.8574 10.6667L24.6353 12.4444L29.2067 8.12697L33.5241 12.4444L35.3019 10.6667L30.9844 6.34913L35.3019 1.77784L33.5241 0Z" fill="#898989"/>
</svg>
