<svg width="13" height="13" viewBox="0 0 13 13" fill="none" xmlns="http://www.w3.org/2000/svg">
<path d="M10.2742 1.39543C11.9254 2.55615 13 4.45456 13 6.60317C13 10.1317 10.096 12.9922 6.51311 13C2.93549 13.0077 0.00524672 10.1369 4.78369e-06 6.61348C-0.00261618 4.46488 1.07198 2.56131 2.72057 1.39801C3.02722 1.18393 3.45444 1.2742 3.63791 1.59663L4.05202 2.32143C4.20666 2.59226 4.13327 2.93531 3.87904 3.12103C2.79133 3.91547 2.09678 5.1742 2.09678 6.60059C2.09416 8.98134 4.0494 10.9365 6.5 10.9365C8.90081 10.9365 10.919 9.02261 10.9032 6.57479C10.8954 5.23868 10.2558 3.949 9.11835 3.11845C8.86411 2.93273 8.79335 2.58968 8.94799 2.32143L9.3621 1.59663C9.54557 1.27678 9.97016 1.18135 10.2742 1.39543ZM7.54839 6.80952V0.619047C7.54839 0.275992 7.26795 0 6.91936 0H6.08065C5.73206 0 5.45162 0.275992 5.45162 0.619047V6.80952C5.45162 7.15257 5.73206 7.42856 6.08065 7.42856H6.91936C7.26795 7.42856 7.54839 7.15257 7.54839 6.80952Z" fill="#898989"/>
</svg>
