<svg width="13" height="15" viewBox="0 0 13 15" fill="none" xmlns="http://www.w3.org/2000/svg">
<path d="M13 2.32059V12.5349C13 13.3041 12.3764 13.9277 11.6071 13.9277H1.39286C0.623594 13.9277 0 13.3041 0 12.5349V2.32059C0 1.55133 0.623594 0.927734 1.39286 0.927734H11.6071C12.3764 0.927734 13 1.55133 13 2.32059ZM11.6071 12.3608V2.4947C11.6071 2.44852 11.5888 2.40424 11.5561 2.37159C11.5235 2.33893 11.4792 2.32059 11.433 2.32059H1.56696C1.52079 2.32059 1.4765 2.33893 1.44385 2.37159C1.4112 2.40424 1.39286 2.44852 1.39286 2.4947V12.3608C1.39286 12.4069 1.4112 12.4512 1.44385 12.4839C1.4765 12.5165 1.52079 12.5349 1.56696 12.5349H11.433C11.4792 12.5349 11.5235 12.5165 11.5561 12.4839C11.5888 12.4512 11.6071 12.4069 11.6071 12.3608V12.3608ZM9.61199 5.82595C9.61199 7.77165 7.51049 7.8016 7.51049 8.52063V8.70452C7.51049 8.89682 7.35458 9.05273 7.16227 9.05273H5.8377C5.64539 9.05273 5.48948 8.89682 5.48948 8.70452V8.45325C5.48948 7.41601 6.27587 7.00137 6.87012 6.66819C7.37971 6.38251 7.69202 6.18821 7.69202 5.80987C7.69202 5.30943 7.05366 4.97726 6.53758 4.97726C5.86468 4.97726 5.55405 5.29579 5.11739 5.8469C4.99966 5.99547 4.78484 6.02307 4.63377 5.90853L3.82638 5.29631C3.67819 5.18396 3.64499 4.9752 3.74966 4.8215C4.43526 3.81475 5.30853 3.24916 6.66813 3.24916C8.09206 3.24916 9.61199 4.36066 9.61199 5.82595ZM7.71875 10.6777C7.71875 11.3498 7.17202 11.8965 6.5 11.8965C5.82798 11.8965 5.28125 11.3498 5.28125 10.6777C5.28125 10.0057 5.82798 9.45898 6.5 9.45898C7.17202 9.45898 7.71875 10.0057 7.71875 10.6777Z" fill="#898989"/>
</svg>
