<svg width="13" height="15" viewBox="0 0 13 15" fill="none" xmlns="http://www.w3.org/2000/svg">
<path d="M11.6071 0.929688H1.39286C0.623884 0.929688 0 1.55387 0 2.32322V12.5425C0 13.3118 0.623884 13.936 1.39286 13.936H11.6071C12.3761 13.936 13 13.3118 13 12.5425V2.32322C13 1.55387 12.3761 0.929688 11.6071 0.929688ZM11.433 12.5425H1.56696C1.47121 12.5425 1.39286 12.4641 1.39286 12.3683V2.49741C1.39286 2.40161 1.47121 2.32322 1.56696 2.32322H11.433C11.5288 2.32322 11.6071 2.40161 11.6071 2.49741V12.3683C11.6071 12.4641 11.5288 12.5425 11.433 12.5425ZM10.2143 5.45867V5.69092C10.2143 5.88253 10.0576 6.0393 9.86607 6.0393H5.57143V6.73607C5.57143 7.1222 5.26094 7.43284 4.875 7.43284H4.41071C4.02478 7.43284 3.71429 7.1222 3.71429 6.73607V6.0393H3.13393C2.94241 6.0393 2.78571 5.88253 2.78571 5.69092V5.45867C2.78571 5.26706 2.94241 5.11028 3.13393 5.11028H3.71429V4.41352C3.71429 4.02739 4.02478 3.71675 4.41071 3.71675H4.875C5.26094 3.71675 5.57143 4.02739 5.57143 4.41352V5.11028H9.86607C10.0576 5.11028 10.2143 5.26706 10.2143 5.45867ZM10.2143 9.17475V9.40701C10.2143 9.59862 10.0576 9.75539 9.86607 9.75539H9.28571V10.4522C9.28571 10.8383 8.97522 11.1489 8.58929 11.1489H8.125C7.73906 11.1489 7.42857 10.8383 7.42857 10.4522V9.75539H3.13393C2.94241 9.75539 2.78571 9.59862 2.78571 9.40701V9.17475C2.78571 8.98314 2.94241 8.82637 3.13393 8.82637H7.42857V8.1296C7.42857 7.74348 7.73906 7.43284 8.125 7.43284H8.58929C8.97522 7.43284 9.28571 7.74348 9.28571 8.1296V8.82637H9.86607C10.0576 8.82637 10.2143 8.98314 10.2143 9.17475Z" fill="#898989"/>
</svg>
