<svg width="15" height="13" viewBox="0 0 15 13" fill="none" xmlns="http://www.w3.org/2000/svg">
<path d="M0 3.41287V2.92542C0 2.5216 0.314795 2.19425 0.703125 2.19425H11.25V0.731902C11.25 0.0809448 12.0088 -0.244275 12.4503 0.214871L14.7941 2.65211C15.0686 2.93767 15.0686 3.40062 14.7941 3.68614L12.4503 6.12338C12.0104 6.58073 11.25 6.26005 11.25 5.60638V4.14404H0.703125C0.314795 4.14404 0 3.81669 0 3.41287ZM14.2969 8.04363H3.75V6.58128C3.75 5.93194 2.99232 5.60395 2.54968 6.06425L0.205928 8.50149C-0.0686426 8.78704 -0.0686426 9.25 0.205928 9.53552L2.54968 11.9728C2.98995 12.4306 3.75 12.1089 3.75 11.4558V9.99342H14.2969C14.6852 9.99342 15 9.66607 15 9.26225V8.7748C15 8.37098 14.6852 8.04363 14.2969 8.04363Z" fill="#898989"/>
</svg>
