<svg width="58" height="58" viewBox="0 0 58 58" fill="none" xmlns="http://www.w3.org/2000/svg">
<g clip-path="url(#clip0)">
<path d="M29.0281 21.7451C25.9002 21.7451 23.3555 19.2009 23.3555 16.073C23.3555 12.9451 25.9002 10.4004 29.0281 10.4004C32.156 10.4004 34.7007 12.9451 34.7007 16.073C34.7007 19.2009 32.156 21.7451 29.0281 21.7451ZM29.0281 12.2911C26.9432 12.2911 25.2462 13.987 25.2462 16.073C25.2462 18.1585 26.9432 19.8544 29.0281 19.8544C31.113 19.8544 32.8095 18.1585 32.8095 16.073C32.8095 13.987 31.113 12.2911 29.0281 12.2911Z" fill="#898989"/>
<path d="M35.7955 28.6834C35.5218 28.6834 35.2497 28.5655 35.0631 28.3361C34.7325 27.932 34.792 27.3364 35.1967 27.0058C35.2838 26.935 35.3568 26.8479 35.4147 26.7483L44.4414 10.6003C44.5739 10.3704 44.608 10.1156 44.5425 9.87214C44.4771 9.62816 44.3207 9.42421 44.1016 9.29763C43.6499 9.03471 43.0711 9.19268 42.8109 9.64385L34.8964 23.8022C34.6416 24.2566 34.065 24.4189 33.6095 24.1657C33.1534 23.9109 32.9906 23.3348 33.2454 22.8787L41.1669 8.70959C41.9551 7.34525 43.6927 6.87785 45.0473 7.6601C45.704 8.03932 46.173 8.6517 46.3694 9.3831C46.5658 10.115 46.4646 10.8794 46.0854 11.5356L37.0592 27.6826C36.8802 27.9926 36.6589 28.2533 36.3939 28.4702C36.218 28.6136 36.006 28.6834 35.7955 28.6834V28.6834Z" fill="#898989"/>
<path d="M9.10274 58.0006C8.38866 58.0006 7.67565 57.7328 7.12657 57.1978C6.58397 56.6687 6.27995 55.9606 6.27075 55.2027C6.26101 54.4453 6.54719 53.7301 7.07626 53.187L17.3969 42.3048C17.7567 41.9261 18.355 41.9094 18.7331 42.2696C19.1124 42.6288 19.128 43.2272 18.7688 43.6064L8.43897 54.4983C8.0657 54.8802 8.07327 55.4807 8.44654 55.8443C8.81927 56.2089 9.41867 56.1997 9.78383 55.8275L20.2078 44.836C20.567 44.4579 21.1659 44.4411 21.544 44.8014C21.9233 45.1606 21.9389 45.7589 21.5797 46.1381L11.146 57.1388C10.585 57.7128 9.84333 58.0006 9.10274 58.0006V58.0006Z" fill="#898989"/>
<path d="M22.572 28.6801C22.3605 28.6801 22.1473 28.6097 21.9715 28.4648C21.7102 28.2495 21.4911 27.9903 21.3202 27.695L12.28 11.5247C11.5048 10.1821 11.9706 8.44391 13.3246 7.66058C14.6803 6.87887 16.4179 7.34411 17.1996 8.69979L25.127 22.8798C25.3818 23.3363 25.219 23.9119 24.7629 24.1667C24.3069 24.4215 23.7319 24.2592 23.4765 23.8032L15.555 9.63405C15.3013 9.19478 14.7209 9.04114 14.2697 9.29864C13.8185 9.55939 13.6638 10.1388 13.924 10.5905L22.9637 26.7602C23.0145 26.8473 23.087 26.9338 23.1725 27.0041C23.5761 27.3363 23.6339 27.9319 23.3018 28.3355C23.1151 28.5627 22.8447 28.6801 22.572 28.6801Z" fill="#898989"/>
<path d="M43.2116 57.6706C43.0569 57.6706 42.9011 57.6587 42.7431 57.6322C41.9955 57.5072 41.3415 57.0993 40.9011 56.4826C40.4613 55.867 40.2871 55.115 40.4121 54.3685L41.9414 45.1893L38.7259 43.76C38.2487 43.5479 38.0334 42.9891 38.246 42.512C38.4581 42.0343 39.0164 41.8185 39.4941 42.0316L43.3788 43.7584C43.7721 43.9337 43.9982 44.3529 43.9268 44.7776L42.2774 54.6785C42.2357 54.9278 42.2936 55.1789 42.4407 55.3839C42.5868 55.59 42.8053 55.7252 43.0547 55.7669C43.5757 55.854 44.0577 55.4991 44.1421 54.9895L46.0328 43.6459C46.1037 43.2201 45.8786 42.8009 45.4848 42.6267L39.6623 40.0387C39.1852 39.8266 38.9699 39.2678 39.1825 38.7906C39.3945 38.313 39.9533 38.0982 40.4305 38.3102L46.253 40.8983C47.4339 41.4235 48.1107 42.6813 47.8981 43.9564L46.0074 55.3011C45.7774 56.6746 44.6019 57.6706 43.2116 57.6706V57.6706Z" fill="#898989"/>
<path d="M22.9045 47.6342C22.6664 47.6342 22.436 47.5433 22.2607 47.3811L16.7222 42.2305C16.5286 42.0492 16.4193 41.7966 16.4209 41.5315C16.4231 41.2664 16.5356 41.0144 16.732 40.8369L22.37 35.7334L21.4687 26.0657C21.4644 24.1647 22.9402 22.6895 24.753 22.6895H33.3025C35.1159 22.6895 36.5911 24.1647 36.5911 25.978C36.5911 26.0105 36.5889 26.0435 36.5862 26.0759L35.7131 34.4973L40.69 36.5919C41.1504 36.7856 41.3803 37.3038 41.2153 37.7755L39.0157 44.0665C38.9286 44.317 38.7398 44.5188 38.4959 44.6232C38.2524 44.7276 37.976 44.726 37.7336 44.6156L29.4248 40.8537L23.6083 47.321C23.4384 47.5093 23.2004 47.6218 22.9472 47.6331C22.9326 47.6342 22.9185 47.6342 22.9045 47.6342V47.6342ZM18.765 41.5472L22.8444 45.3416L28.4819 39.0744C28.7573 38.7688 29.1982 38.6773 29.5747 38.8456L37.5724 42.4663L39.1374 37.9898L34.3336 35.9676C33.9501 35.8059 33.7174 35.4126 33.7602 34.9982L34.6998 25.9353C34.6766 25.1839 34.0593 24.5802 33.3025 24.5802H24.753C23.9821 24.5802 23.3556 25.2071 23.3556 25.978L24.2964 36.0282C24.324 36.3247 24.2109 36.6173 23.9897 36.8169L18.765 41.5472Z" fill="#898989"/>
<path d="M47.9366 9.45515H10.1199C9.59785 9.45515 9.1748 9.03265 9.1748 8.51007C9.1748 7.98749 9.59785 7.56445 10.1199 7.56445H47.9366C48.4592 7.56445 48.8822 7.98749 48.8822 8.51007C48.8822 9.03265 48.4592 9.45515 47.9366 9.45515Z" fill="#898989"/>
<path d="M10.1203 17.0174H7.28449C6.76191 17.0174 6.33887 16.5949 6.33887 16.0723V0.94562C6.33887 0.423041 6.76191 0 7.28449 0H10.1203C10.6429 0 11.0659 0.423041 11.0659 0.94562V16.0723C11.0659 16.5949 10.6429 17.0174 10.1203 17.0174ZM8.22957 15.1267H9.17519V1.8907H8.22957V15.1267Z" fill="#898989"/>
<path d="M7.28292 17.0174H4.4466C3.92456 17.0174 3.50098 16.5949 3.50098 16.0723V0.94562C3.50098 0.423041 3.92456 0 4.4466 0H7.28292C7.80496 0 8.228 0.423041 8.228 0.94562V16.0723C8.228 16.5949 7.80496 17.0174 7.28292 17.0174ZM5.39168 15.1267H6.3373V1.8907H5.39168V15.1267Z" fill="#898989"/>
<path d="M53.6086 17.0174H50.7722C50.2502 17.0174 49.8271 16.5949 49.8271 16.0723V0.94562C49.8271 0.423041 50.2502 0 50.7722 0H53.6086C54.1306 0 54.5542 0.423041 54.5542 0.94562V16.0723C54.5542 16.5949 54.1306 17.0174 53.6086 17.0174ZM51.7179 15.1267H52.6635V1.8907H51.7179V15.1267Z" fill="#898989"/>
<path d="M50.7726 17.0174H47.9363C47.4143 17.0174 46.9912 16.5949 46.9912 16.0723V0.94562C46.9912 0.423041 47.4143 0 47.9363 0H50.7726C51.2946 0 51.7182 0.423041 51.7182 0.94562V16.0723C51.7182 16.5949 51.2946 17.0174 50.7726 17.0174V17.0174ZM48.8819 15.1267H49.8275V1.8907H48.8819V15.1267Z" fill="#898989"/>
<path d="M4.44796 9.45515H1.61164C1.0896 9.45515 0.666016 9.03265 0.666016 8.51007C0.666016 7.98749 1.0896 7.56445 1.61164 7.56445H4.44796C4.96999 7.56445 5.39304 7.98749 5.39304 8.51007C5.39304 9.03265 4.96999 9.45515 4.44796 9.45515Z" fill="#898989"/>
<path d="M56.4455 9.45515H53.6091C53.0871 9.45515 52.6641 9.03265 52.6641 8.51007C52.6641 7.98749 53.0871 7.56445 53.6091 7.56445H56.4455C56.9675 7.56445 57.3911 7.98749 57.3911 8.51007C57.3911 9.03265 56.9675 9.45515 56.4455 9.45515V9.45515Z" fill="#898989"/>
</g>
<defs>
<clipPath id="clip0">
<rect width="58" height="58" fill="white"/>
</clipPath>
</defs>
</svg>
